<?xml version="1.0" encoding="UTF-8" standalone="no"?>
<!-- Created with Inkscape (http://www.inkscape.org/) -->

<svg
   width="200mm"
   height="200mm"
   viewBox="0 0 200.00001 200.00001"
   version="1.1"
   id="svg5"
   inkscape:version="1.2.2 (732a01da63, 2022-12-09, custom)"
   sodipodi:docname="focc club new"
   inkscape:export-filename="../../../../../home/ashkan/Desktop/spring 24/foss club/foss red new.png"
   inkscape:export-xdpi="96"
   inkscape:export-ydpi="96"
   xmlns:inkscape="http://www.inkscape.org/namespaces/inkscape"
   xmlns:sodipodi="http://sodipodi.sourceforge.net/DTD/sodipodi-0.dtd"
   xmlns="http://www.w3.org/2000/svg"
   xmlns:svg="http://www.w3.org/2000/svg">
  <sodipodi:namedview
     id="namedview7"
     pagecolor="#ffffff"
     bordercolor="#000000"
     borderopacity="0.25"
     inkscape:showpageshadow="2"
     inkscape:pageopacity="0.0"
     inkscape:pagecheckerboard="0"
     inkscape:deskcolor="#d1d1d1"
     inkscape:document-units="mm"
     showgrid="false"
     inkscape:zoom="1.0625682"
     inkscape:cx="355.74186"
     inkscape:cy="373.15251"
     inkscape:window-width="1866"
     inkscape:window-height="1136"
     inkscape:window-x="54"
     inkscape:window-y="27"
     inkscape:window-maximized="1"
     inkscape:current-layer="layer1" />
  <defs
     id="defs2">
    <rect
       x="852.81738"
       y="573.62329"
       width="24.157459"
       height="53.678303"
       id="rect290" />
  </defs>
  <g
     inkscape:label="Layer 1"
     inkscape:groupmode="layer"
     id="layer1"
     transform="translate(-93.188969,-79.454841)">
    <g
       transform="scale(0.26458333)"
       id="text288"
       style="white-space:pre;shape-inside:url(#rect290)" />
    <rect
       style="fill:#ffffff;fill-opacity:1;stroke-width:2.117;stroke-dasharray:none"
       id="rect3885"
       width="200"
       height="200"
       x="93.188972"
       y="79.454842" />
    <g
       id="g3831"
       transform="translate(45.648401,29.454837)">
      <g
         id="g18083"
         transform="translate(-0.32856447,0.42025167)"
         style="fill:#ff0000;fill-opacity:1">
        <g
           aria-label="F  SS"
           transform="rotate(-50.978104)"
           id="text113"
           style="font-size:50.8px;fill:#ff0000;fill-opacity:1;stroke-width:4.233">
          <path
             d="m -94.978097,224.89835 h -6.096003 v -17.8308 q 0,-2.0828 0.762,-3.9116 0.812803,-1.8288 2.133603,-3.1496 1.3716,-1.3716 3.2004,-2.1336 1.8288,-0.8128 3.9116,-0.8128 h 23.4188 v 6.096 h -23.4188 q -1.6256,0 -2.794,1.1684 -1.1176,1.1176 -1.1176,2.7432 v 3.9116 h 27.3304 v 6.096 h -27.3304 z"
             style="font-family:moonhouse;-inkscape-font-specification:moonhouse;fill:#ff0000;fill-opacity:1"
             id="path324" />
          <path
             d="M -14.714355,218.85315 H 7.7392442 l -10.0583999,-12.4968 q -1.1175999,-1.4224 -1.2699999,-3.048 -0.1016,-1.6256 0.5588,-2.9972 0.7111999,-1.4224 2.03199993,-2.3368 1.37159997,-0.9652 3.20039997,-0.9652 H 24.604844 v 6.0452 H 2.7608443 l 10.0075997,12.4968 q 1.1176,1.4224 1.2192,3.048 0.1524,1.6256 -0.508,3.048 -0.6604,1.3716 -2.032,2.3368 -1.3208,0.9144 -3.1495998,0.9144 H -14.714355 Z"
             style="font-family:moonhouse;-inkscape-font-specification:moonhouse;fill:#ff0000;fill-opacity:1"
             id="path326" />
          <path
             d="m 18.610359,218.85315 h 22.4536 l -10.0584,-12.4968 q -1.1176,-1.4224 -1.27,-3.048 -0.1016,-1.6256 0.5588,-2.9972 0.7112,-1.4224 2.032,-2.3368 1.3716,-0.9652 3.2004,-0.9652 h 22.4028 v 6.0452 h -21.844 l 10.0076,12.4968 q 1.1176,1.4224 1.2192,3.048 0.1524,1.6256 -0.508,3.048 -0.6604,1.3716 -2.032,2.3368 -1.3208,0.9144 -3.1496,0.9144 h -23.0124 z"
             style="font-family:moonhouse;-inkscape-font-specification:moonhouse;fill:#ff0000;fill-opacity:1"
             id="path328" />
        </g>
        <g
           id="g18032"
           transform="matrix(1.0273439,0,0,1.0273439,113.86636,137.88458)"
           style="fill:#ff0000;fill-opacity:1">
          <g
             id="g18030"
             style="fill:#ff0000;fill-opacity:1">
            <path
               d="m 43.454,18.443 h -2.437 c -0.453,-1.766 -1.16,-3.42 -2.082,-4.933 l 1.752,-1.756 C 41.16,11.281 41.42,10.65 41.42,9.98 41.42,9.311 41.158,8.679 40.687,8.207 L 37.767,5.29 C 36.82,4.342 35.165,4.343 34.222,5.289 L 32.396,7.104 C 30.9,6.232 29.296,5.56 27.529,5.128 V 2.52 C 27.529,1.137 26.424,0 25.041,0 H 20.913 C 19.53,0 18.442,1.137 18.442,2.52 v 2.607 c -1.766,0.431 -3.38,1.104 -4.878,1.977 L 11.739,5.289 C 10.793,4.341 9.137,4.342 8.188,5.288 L 5.27,8.205 C 4.802,8.672 4.535,9.318 4.535,9.978 c 0,0.669 0.259,1.299 0.733,1.772 L 7.02,13.51 C 6.099,15.023 5.391,16.677 4.939,18.443 H 2.501 C 1.117,18.443 0,19.555 0,20.935 v 4.125 c 0,1.384 1.117,2.471 2.501,2.471 h 2.438 c 0.452,1.766 1.159,3.43 2.079,4.943 l -1.752,1.763 c -0.474,0.473 -0.734,1.106 -0.734,1.776 0,0.67 0.261,1.303 0.734,1.776 l 2.92,2.919 c 0.474,0.473 1.103,0.733 1.772,0.733 0.669,0 1.299,-0.261 1.773,-0.733 l 1.833,-1.816 c 1.498,0.873 3.112,1.545 4.878,1.978 v 2.604 c 0,1.383 1.088,2.498 2.471,2.498 h 4.128 c 1.383,0 2.488,-1.115 2.488,-2.498 v -2.605 c 1.767,-0.432 3.371,-1.104 4.869,-1.977 l 1.817,1.812 c 0.474,0.475 1.104,0.735 1.775,0.735 0.67,0 1.301,-0.261 1.774,-0.733 l 2.92,-2.917 c 0.473,-0.472 0.732,-1.103 0.734,-1.772 0,-0.67 -0.262,-1.299 -0.734,-1.773 l -1.75,-1.77 c 0.92,-1.514 1.627,-3.179 2.08,-4.943 h 2.438 c 1.383,0 2.52,-1.087 2.52,-2.471 v -4.125 c 10e-4,-1.38 -1.135,-2.492 -2.518,-2.492 z M 22.976,30.85 c -4.378,0 -7.928,-3.517 -7.928,-7.852 0,-4.338 3.55,-7.85 7.928,-7.85 4.379,0 7.931,3.512 7.931,7.85 -0.001,4.336 -3.552,7.852 -7.931,7.852 z"
               id="path18028"
               style="fill:#ff0000;fill-opacity:1" />
          </g>
        </g>
      </g>
      <g
         aria-label="club"
         id="text113-3"
         style="font-size:25.4px;stroke-width:2.11666">
        <path
           d="m 138.2779,220.45966 h -11.7856 q -1.0414,0 -1.9558,-0.381 -0.9144,-0.4064 -1.6002,-1.0668 -0.6604,-0.6858 -1.0668,-1.6002 -0.381,-0.9144 -0.381,-1.9558 0,-1.0414 0.381,-1.9558 0.4064,-0.9144 1.0668,-1.5748 0.6858,-0.6858 1.6002,-1.0668 0.9144,-0.4064 1.9558,-0.4064 h 11.7856 v 3.048 h -11.7856 q -0.8128,0 -1.397,0.5842 -0.5588,0.5588 -0.5588,1.3716 0,0.8128 0.5588,1.397 0.5842,0.5588 1.397,0.5588 h 11.7856 z"
           style="font-family:moonhouse;-inkscape-font-specification:moonhouse;fill:#ff0000"
           id="path315" />
        <path
           d="m 142.7991,220.45966 h -3.048 v -13.081 h 3.048 z"
           style="font-family:moonhouse;-inkscape-font-specification:moonhouse;fill:#ff0000"
           id="path317" />
        <path
           d="m 149.2507,220.45966 q -1.0414,0 -1.9558,-0.381 -0.9144,-0.4064 -1.6002,-1.0668 -0.6604,-0.6858 -1.0668,-1.6002 -0.381,-0.9144 -0.381,-1.9558 v -5.0038 h 3.048 v 5.0038 q 0,0.8128 0.5588,1.397 0.5842,0.5588 1.397,0.5588 h 5.3594 q 0.8128,0 1.3716,-0.5588 0.5588,-0.5842 0.5588,-1.397 v -5.0038 h 3.0734 v 5.0038 q 0,1.0414 -0.4064,1.9558 -0.381,0.9144 -1.0668,1.6002 -0.6858,0.6604 -1.6002,1.0668 -0.9144,0.381 -1.9304,0.381 z"
           style="font-family:moonhouse;-inkscape-font-specification:moonhouse;fill:#ff0000"
           id="path319" />
        <path
           d="m 163.7033,215.45586 q 0,0.8128 0.5588,1.397 0.5842,0.5588 1.397,0.5588 h 7.8486 q 0.8128,0 1.3716,-0.5588 0.5842,-0.5842 0.5842,-1.397 0,-0.8128 -0.5842,-1.3716 -0.5588,-0.5842 -1.3716,-0.5842 h -7.9756 v -3.048 h 7.9756 q 1.0414,0 1.9558,0.4064 0.9144,0.381 1.5748,1.0668 0.6858,0.6604 1.0668,1.5748 0.4064,0.9144 0.4064,1.9558 0,1.0414 -0.4064,1.9558 -0.381,0.9144 -1.0668,1.6002 -0.6604,0.6604 -1.5748,1.0668 -0.9144,0.381 -1.9558,0.381 h -7.8486 q -1.0414,0 -1.9558,-0.381 -0.9144,-0.4064 -1.6002,-1.0668 -0.6604,-0.6858 -1.0668,-1.6002 -0.381,-0.9144 -0.381,-1.9558 v -8.0772 h 3.048 z"
           style="font-family:moonhouse;-inkscape-font-specification:moonhouse;fill:#ff0000"
           id="path321" />
      </g>
    </g>
  </g>
</svg>
